<svg xmlns="http://www.w3.org/2000/svg" width="3264.109" height="997.07" viewBox="0 0 3264.109 997.07">
  <g id="Group_1" data-name="Group 1" transform="translate(-28.45 -23.723)">
    <rect id="Rectangle_612" data-name="Rectangle 612" width="105.669" height="105.672" transform="translate(2291.983 228.567) rotate(-16.659)" fill="#5f5f5f"/>
    <path id="Path_3124" data-name="Path 3124" d="M1278.615,451.7c0,224.9-182.314,407.212-407.212,407.212S464.2,676.6,464.2,451.7,646.51,44.485,871.4,44.485,1278.615,226.8,1278.615,451.7" transform="translate(2013.944 95.991)" fill="#641859"/>
    <path id="Path_3125" data-name="Path 3125" d="M627.816,555.425,503.2,138.789,705.545,78.272q256.568-76.756,315.465,120.2,65.723,219.7-190.844,296.43Zm178.654-182.7q121.494-36.345,92.5-133.286-24.663-82.509-146.179-46.177l-80.557,24.112,53.69,179.435Z" transform="translate(2194.247 152.691)" fill="#5f5f5f"/>
    <rect id="Rectangle_613" data-name="Rectangle 613" width="130.778" height="306.259" transform="translate(2794.245 581.765) rotate(-16.654)" fill="#5f5f5f"/>
    <rect id="Rectangle_614" data-name="Rectangle 614" width="131.066" height="122.484" transform="translate(2890.461 903.45) rotate(-16.66)" fill="#5f5f5f"/>
    <rect id="Rectangle_615" data-name="Rectangle 615" width="299.059" height="124.884" transform="translate(2640.754 626.878) rotate(-16.649)" fill="#5f5f5f"/>
    <path id="Path_3126" data-name="Path 3126" d="M774.934,132.18,811.167,253.3,460.553,359.671,424.32,238.548Z" transform="translate(1829.591 501.419)" fill="#5f5f5f"/>
    <rect id="Rectangle_616" data-name="Rectangle 616" width="130.777" height="306.259" transform="translate(2800.018 561.25) rotate(-16.655)" fill="#fff"/>
    <rect id="Rectangle_617" data-name="Rectangle 617" width="131.053" height="122.483" transform="matrix(0.958, -0.287, 0.287, 0.958, 2896.247, 882.935)" fill="#fff"/>
    <rect id="Rectangle_618" data-name="Rectangle 618" width="299.048" height="124.877" transform="matrix(0.958, -0.287, 0.287, 0.958, 2646.541, 606.369)" fill="#fff"/>
    <path id="Path_3127" data-name="Path 3127" d="M775.656,128.869l36.233,121.123L462.1,356.358,425.864,235.235Z" transform="translate(1836.728 486.112)" fill="#fff"/>
    <path id="Path_3128" data-name="Path 3128" d="M612.314,80.15l34.327,129.022L505.475,251.5l-38.592-129.05Z" transform="translate(2026.366 260.876)" fill="#5f5f5f"/>
    <rect id="Rectangle_619" data-name="Rectangle 619" width="187.482" height="187.494" transform="matrix(0.958, -0.287, 0.287, 0.958, 2164.27, 433.109)" fill="#5f5f5f"/>
    <rect id="Rectangle_620" data-name="Rectangle 620" width="187.484" height="187.493" transform="matrix(0.958, -0.287, 0.287, 0.958, 2175.116, 416.468)" fill="#641859"/>
    <rect id="Rectangle_621" data-name="Rectangle 621" width="105.665" height="105.669" transform="matrix(0.958, -0.287, 0.287, 0.958, 2298.265, 211.766)" fill="#006fb9"/>
    <rect id="Rectangle_622" data-name="Rectangle 622" width="176.296" height="176.297" transform="translate(2415.53 91.418) rotate(-16.653)" fill="#5f5f5f"/>
    <rect id="Rectangle_623" data-name="Rectangle 623" width="176.297" height="176.297" transform="translate(2423.503 74.257) rotate(-16.657)" fill="#641859"/>
    <rect id="Rectangle_624" data-name="Rectangle 624" width="98.525" height="98.521" transform="matrix(0.958, -0.286, 0.286, 0.958, 2151.878, 205.045)" fill="#5f5f5f"/>
    <rect id="Rectangle_625" data-name="Rectangle 625" width="98.534" height="98.528" transform="translate(2157.632 189.653) rotate(-16.654)" fill="#006fb9"/>
    <path id="Path_3129" data-name="Path 3129" d="M613.046,76.42l38.6,129.049L507.016,247.387l-38.592-129.05Z" transform="translate(2033.492 243.633)" fill="#fff"/>
    <path id="Path_3130" data-name="Path 3130" d="M630.222,550.469,505.6,133.816,707.94,73.3Q964.507-3.456,1023.422,193.5q65.723,219.7-190.85,296.43ZM808.865,367.751q121.511-36.345,92.5-133.286Q876.7,151.956,755.174,188.293L674.645,212.4l53.69,179.452Z" transform="translate(2205.37 129.711)" fill="#fff"/>
    <g id="Group_711" data-name="Group 711" transform="translate(43.072 105.848)">
      <path id="Path_3131" data-name="Path 3131" d="M31.153,564.9V43.171H235.465q259.039,0,259.053,246.637,0,275.1-259.053,275.1ZM235.465,480.99q162.369,0,162.357-191.182,0-162.714-162.357-162.717H127.843v353.9Z" transform="translate(-31.153 -15.932)" fill="#231d61"/>
      <path id="Path_3132" data-name="Path 3132" d="M225.027,91.483v5.741c0,29.358-25.355,53.156-56.631,53.156h0c-31.27,0-56.625-23.8-56.625-53.156V91.483c0-29.359,25.355-53.156,56.625-53.156h0C199.672,38.327,225.027,62.124,225.027,91.483ZM216.739,204.21V587.3H120.06V204.21Z" transform="translate(341.556 -38.327)" fill="#231d61"/>
      <path id="Path_3133" data-name="Path 3133" d="M148.372,435.675V355.41q63.851,25.54,147.4,25.54,62.383,0,62.395-40.138,0-38.3-41.966-38.3H246.879q-116.754,0-116.754-114.932,0-120.4,170.387-120.4,72.235,0,136.086,21.891v80.271q-63.843-25.54-138.633-25.546-78.452,0-78.449,40.138,0,38.3,45.609,38.3h62.023q127.693,0,127.7,114.932,0,120.4-162.723,120.4Q212.22,457.571,148.372,435.675Z" transform="translate(426.41 95.056)" fill="#231d61"/>
      <path id="Path_3134" data-name="Path 3134" d="M186.589,83.516q76.25-15.68,161.267-15.689,195.18,0,195.185,182.061,0,201.033-181.7,201.028-38.665,0-78.078-18.241V589.56H186.589Zm96.679,267.432a159.777,159.777,0,0,0,77.712,19.7q86.481,0,86.473-121.494,0-103.241-95.588-103.252-41.229,0-68.6,5.106Z" transform="translate(687.452 98.056)" fill="#231d61"/>
      <path id="Path_3135" data-name="Path 3135" d="M346.353,43.171V564.9H249.668V43.171Z" transform="translate(979.075 -15.932)" fill="#231d61"/>
      <path id="Path_3136" data-name="Path 3136" d="M266.551,331.609q0-114.189,166.378-114.2a424.338,424.338,0,0,1,78.077,7.3V195.889q0-51.443-74.074-51.441-62.755,0-139.37,18.236V86.068q76.629-18.236,139.37-18.241,170.761,0,170.753,126.24V450.916H551.5l-34.3-34.3q-50,34.3-110.186,34.3Q266.551,450.916,266.551,331.609Zm166.378-48.522q-69.7,0-69.688,47.431,0,51.089,58.374,51.075,48.162,0,89.391-29.915V290.386A397.977,397.977,0,0,0,432.929,283.087Z" transform="translate(1057.128 98.056)" fill="#231d61"/>
      <path id="Path_3137" data-name="Path 3137" d="M322.039,67.827H424.561l96.685,275.821,94.5-275.821h100.7l-159.074,394.4Q515.034,566.567,422,610.72l-46.7-66.038q64.213-28.1,93.412-91.579Z" transform="translate(1313.658 98.056)" fill="#231d61"/>
    </g>
    <g id="Group_713" data-name="Group 713" transform="translate(48.853 90.525)">
      <g id="Group_712" data-name="Group 712">
        <path id="Path_3138" data-name="Path 3138" d="M32.181,562.179V40.446H236.493q259.039,0,259.053,246.637,0,275.1-259.053,275.1Zm204.312-83.914q162.369,0,162.357-191.182,0-162.714-162.357-162.717H128.871v353.9Z" transform="translate(-32.181 -13.207)" fill="#641859"/>
        <path id="Path_3139" data-name="Path 3139" d="M227.3,88.758V94.5c0,29.358-25.349,53.156-56.625,53.156h0c-31.276,0-56.625-23.8-56.625-53.156V88.758C114.05,59.4,139.4,35.6,170.675,35.6h0C201.951,35.6,227.3,59.4,227.3,88.758Zm-8.283,112.727V584.574H122.333V201.485Z" transform="translate(346.312 -35.602)" fill="#641859"/>
        <path id="Path_3140" data-name="Path 3140" d="M150.651,432.95V352.685q63.842,25.54,147.394,25.54,62.383,0,62.395-40.138,0-38.3-41.966-38.3H249.158Q132.4,299.782,132.4,184.85q0-120.4,170.387-120.4,72.235,0,136.086,21.891v80.265q-63.851-25.532-138.639-25.54-78.451,0-78.443,40.138,0,38.3,45.6,38.3h62.029q127.693,0,127.691,114.932,0,120.4-162.723,120.4Q214.494,454.846,150.651,432.95Z" transform="translate(431.165 97.781)" fill="#641859"/>
      </g>
    </g>
    <path id="Path_3141" data-name="Path 3141" d="M188.878,80.68Q265.12,64.992,350.145,64.986q195.171,0,195.185,182.066,0,201.033-181.7,201.028-38.665,0-78.078-18.242V586.725H188.878Zm96.679,267.432a159.761,159.761,0,0,0,77.712,19.7q86.473,0,86.473-121.494,0-103.25-95.588-103.252-41.238,0-68.6,5.106Z" transform="translate(741.106 190.77)" fill="#006fb9"/>
    <path id="Path_3142" data-name="Path 3142" d="M348.642,40.331V562.064H251.957V40.331Z" transform="translate(1032.73 76.786)" fill="#006fb9"/>
    <path id="Path_3143" data-name="Path 3143" d="M269.073,329.007q0-114.189,166.372-114.2a424.827,424.827,0,0,1,78.083,7.293V193.281q0-51.435-74.074-51.441-62.763,0-139.37,18.242V83.466q76.621-18.244,139.37-18.247,170.753,0,170.753,126.24V448.313H554.026l-34.3-34.3q-49.993,34.3-110.18,34.3Q269.073,448.313,269.073,329.007Zm166.372-48.522q-69.7,0-69.682,47.426,0,51.089,58.374,51.081,48.154,0,89.391-29.915v-61.3A398.435,398.435,0,0,0,435.445,280.485Z" transform="translate(1111.86 191.847)" fill="#006fb9"/>
    <path id="Path_3144" data-name="Path 3144" d="M324.715,66.827H427.236l96.685,275.821,94.5-275.821h100.7l-159.079,394.4Q517.713,565.567,424.678,609.72l-46.7-66.038q64.214-28.1,93.406-91.579Z" transform="translate(1369.102 199.281)" fill="#006fb9"/>
    <line id="Line_78" data-name="Line 78" x2="1257.547" transform="translate(28.575 834.493)" fill="#147099" stroke="#147099" stroke-linecap="round" stroke-linejoin="round" stroke-width="0.25"/>
    <line id="Line_79" data-name="Line 79" x2="1257.547" transform="translate(1260.753 973.56)" fill="#147099" stroke="#147099" stroke-linecap="round" stroke-linejoin="round" stroke-width="0.25"/>
    <text id="Adquiere_Niveles_Ilimitados" data-name="Adquiere Niveles Ilimitados" transform="translate(535.9 936.232)" fill="#147099" stroke="#147099" stroke-linecap="round" stroke-linejoin="round" stroke-width="0.25" font-size="95" font-family="Helvetica"><tspan x="0" y="0">Adquiere Niveles Ilimitados</tspan></text>
  </g>
</svg>
