<svg xmlns="http://www.w3.org/2000/svg" viewBox="0 0 500 500"><g id="freepik--background-simple--inject-1"><path d="M93,400.29S26.55,371.42,36.58,299.71c7.94-56.8,66.71-33,83.86-70.58s-31.81-108.19,35.05-144c67.36-36.11,68.81,54.07,108,51.78s79.29-63.69,115.43-35.28c40.45,31.79-10.71,78.35,0,94.67s51.38-25.87,70.8-1.78-46.25,83.22-38.3,114.14,38.21,10.54,53.21,39c13.5,25.59-46.08,52.69-46.08,52.69H93" style="fill:#92E3A9"></path><path d="M93,400.29S26.55,371.42,36.58,299.71c7.94-56.8,66.71-33,83.86-70.58s-31.81-108.19,35.05-144c67.36-36.11,68.81,54.07,108,51.78s79.29-63.69,115.43-35.28c40.45,31.79-10.71,78.35,0,94.67s51.38-25.87,70.8-1.78-46.25,83.22-38.3,114.14,38.21,10.54,53.21,39c13.5,25.59-46.08,52.69-46.08,52.69H93" style="fill:#fff;opacity:0.7000000000000001"></path></g><g id="freepik--Cloud--inject-1"><path d="M341.77,132.34h58.48a2.37,2.37,0,0,0,1.69-4.05,7.22,7.22,0,0,0-3.53-1.64,2.34,2.34,0,0,1-1.79-1.91c-.68-4-3.37-14.11-13.45-14.32a15.91,15.91,0,0,0-15,8.74,2.39,2.39,0,0,1-2.92,1.16c-1.89-.68-4.8-.83-7.17,3a2.4,2.4,0,0,1-2.72,1.07,7.29,7.29,0,0,0-8.27,2.41,2.29,2.29,0,0,1-2.09.91,19.86,19.86,0,0,0-3.36-.15C338.55,127.72,338.71,132.34,341.77,132.34Z" style="fill:none;stroke:#263238;stroke-linecap:round;stroke-linejoin:round"></path><path d="M152.69,250.2H192.6a1.62,1.62,0,0,0,1.16-2.76,5,5,0,0,0-2.41-1.12,1.59,1.59,0,0,1-1.22-1.31c-.46-2.76-2.3-9.63-9.18-9.77a10.84,10.84,0,0,0-10.26,6,1.65,1.65,0,0,1-2,.79c-1.29-.47-3.27-.57-4.89,2.06a1.64,1.64,0,0,1-1.86.73,5,5,0,0,0-5.64,1.64,1.59,1.59,0,0,1-1.43.63,12.21,12.21,0,0,0-2.29-.1A1.62,1.62,0,0,0,152.69,250.2Z" style="fill:none;stroke:#263238;stroke-linecap:round;stroke-linejoin:round"></path><path d="M86.78,126.88H177c3.26,0,5-4,2.62-6.24a11.4,11.4,0,0,0-5.44-2.53,3.6,3.6,0,0,1-2.77-2.94c-1-6.26-5.2-21.77-20.75-22.09-13.92-.28-20.54,8.46-23.18,13.48a3.69,3.69,0,0,1-4.51,1.79c-2.91-1-7.4-1.27-11.06,4.66a3.7,3.7,0,0,1-4.19,1.64c-3.26-1-8.74-1.47-12.76,3.72a3.53,3.53,0,0,1-3.23,1.41,30.67,30.67,0,0,0-5.17-.23C81.8,119.77,82.05,126.88,86.78,126.88Z" style="fill:none;stroke:#263238;stroke-linecap:round;stroke-linejoin:round"></path></g><g id="freepik--Gate--inject-1"><path d="M429.71,400.28H377.13a5.53,5.53,0,0,1-5.53-5.52V247.86a5.53,5.53,0,0,0-1.75-4l-30.44-28.46a5.5,5.5,0,0,0-3.77-1.49H163.18a5.52,5.52,0,0,0-3.83,1.54l-29.26,28.16a5.51,5.51,0,0,0-1.69,4V394.76a5.53,5.53,0,0,1-5.53,5.52H70.29a5.52,5.52,0,0,1-5.52-5.52V220.47a5.53,5.53,0,0,1,1.69-4l67.26-64.7a5.51,5.51,0,0,1,3.82-1.55H360.75a5.55,5.55,0,0,1,3.77,1.49l69,64.49a5.49,5.49,0,0,1,1.75,4V394.76A5.52,5.52,0,0,1,429.71,400.28Z" style="fill:#92E3A9;stroke:#263238;stroke-linecap:round;stroke-linejoin:round"></path><rect x="64.77" y="260.01" width="15.91" height="15.91" style="fill:#fff;stroke:#263238;stroke-linecap:round;stroke-linejoin:round"></rect><rect x="96.58" y="260.01" width="15.91" height="15.91" style="fill:#fff;stroke:#263238;stroke-linecap:round;stroke-linejoin:round"></rect><rect x="80.68" y="275.92" width="15.91" height="15.91" style="fill:#fff;stroke:#263238;stroke-linecap:round;stroke-linejoin:round"></rect><rect x="112.49" y="275.92" width="15.91" height="15.91" style="fill:#fff;stroke:#263238;stroke-linecap:round;stroke-linejoin:round"></rect><rect x="64.77" y="291.82" width="15.91" height="15.91" style="fill:#fff;stroke:#263238;stroke-linecap:round;stroke-linejoin:round"></rect><rect x="96.58" y="291.82" width="15.91" height="15.91" style="fill:#fff;stroke:#263238;stroke-linecap:round;stroke-linejoin:round"></rect><rect x="80.68" y="307.73" width="15.91" height="15.91" style="fill:#fff;stroke:#263238;stroke-linecap:round;stroke-linejoin:round"></rect><rect x="112.49" y="307.73" width="15.91" height="15.91" style="fill:#fff;stroke:#263238;stroke-linecap:round;stroke-linejoin:round"></rect><rect x="64.77" y="323.64" width="15.91" height="15.91" style="fill:#fff;stroke:#263238;stroke-linecap:round;stroke-linejoin:round"></rect><rect x="96.58" y="323.64" width="15.91" height="15.91" style="fill:#fff;stroke:#263238;stroke-linecap:round;stroke-linejoin:round"></rect><rect x="80.68" y="339.54" width="15.91" height="15.91" style="fill:#fff;stroke:#263238;stroke-linecap:round;stroke-linejoin:round"></rect><rect x="112.49" y="339.54" width="15.91" height="15.91" style="fill:#fff;stroke:#263238;stroke-linecap:round;stroke-linejoin:round"></rect><rect x="64.77" y="355.45" width="15.91" height="15.91" style="fill:#fff;stroke:#263238;stroke-linecap:round;stroke-linejoin:round"></rect><rect x="96.58" y="355.45" width="15.91" height="15.91" style="fill:#fff;stroke:#263238;stroke-linecap:round;stroke-linejoin:round"></rect><rect x="80.68" y="260.01" width="15.91" height="15.91" style="fill:#263238;stroke:#263238;stroke-linecap:round;stroke-linejoin:round"></rect><rect x="112.49" y="260.01" width="15.91" height="15.91" style="fill:#263238;stroke:#263238;stroke-linecap:round;stroke-linejoin:round"></rect><rect x="64.77" y="275.92" width="15.91" height="15.91" style="fill:#263238;stroke:#263238;stroke-linecap:round;stroke-linejoin:round"></rect><rect x="96.58" y="275.92" width="15.91" height="15.91" style="fill:#263238;stroke:#263238;stroke-linecap:round;stroke-linejoin:round"></rect><rect x="80.68" y="291.82" width="15.91" height="15.91" style="fill:#263238;stroke:#263238;stroke-linecap:round;stroke-linejoin:round"></rect><rect x="112.49" y="291.82" width="15.91" height="15.91" style="fill:#263238;stroke:#263238;stroke-linecap:round;stroke-linejoin:round"></rect><rect x="64.77" y="307.73" width="15.91" height="15.91" style="fill:#263238;stroke:#263238;stroke-linecap:round;stroke-linejoin:round"></rect><rect x="96.58" y="307.73" width="15.91" height="15.91" style="fill:#263238;stroke:#263238;stroke-linecap:round;stroke-linejoin:round"></rect><rect x="80.68" y="323.64" width="15.91" height="15.91" style="fill:#263238;stroke:#263238;stroke-linecap:round;stroke-linejoin:round"></rect><rect x="112.49" y="323.64" width="15.91" height="15.91" style="fill:#263238;stroke:#263238;stroke-linecap:round;stroke-linejoin:round"></rect><rect x="64.77" y="339.54" width="15.91" height="15.91" style="fill:#263238;stroke:#263238;stroke-linecap:round;stroke-linejoin:round"></rect><rect x="96.58" y="339.54" width="15.91" height="15.91" style="fill:#263238;stroke:#263238;stroke-linecap:round;stroke-linejoin:round"></rect><rect x="80.68" y="355.45" width="15.91" height="15.91" style="fill:#263238;stroke:#263238;stroke-linecap:round;stroke-linejoin:round"></rect><rect x="112.49" y="355.45" width="15.91" height="15.91" style="fill:#263238;stroke:#263238;stroke-linecap:round;stroke-linejoin:round"></rect><rect x="371.6" y="260.01" width="15.91" height="15.91" style="fill:#fff;stroke:#263238;stroke-linecap:round;stroke-linejoin:round"></rect><rect x="403.42" y="260.01" width="15.91" height="15.91" style="fill:#fff;stroke:#263238;stroke-linecap:round;stroke-linejoin:round"></rect><rect x="387.51" y="275.92" width="15.91" height="15.91" style="fill:#fff;stroke:#263238;stroke-linecap:round;stroke-linejoin:round"></rect><rect x="419.32" y="275.92" width="15.91" height="15.91" style="fill:#fff;stroke:#263238;stroke-linecap:round;stroke-linejoin:round"></rect><rect x="371.6" y="291.82" width="15.91" height="15.91" style="fill:#fff;stroke:#263238;stroke-linecap:round;stroke-linejoin:round"></rect><rect x="403.42" y="291.82" width="15.91" height="15.91" style="fill:#fff;stroke:#263238;stroke-linecap:round;stroke-linejoin:round"></rect><rect x="387.51" y="307.73" width="15.91" height="15.91" style="fill:#fff;stroke:#263238;stroke-linecap:round;stroke-linejoin:round"></rect><rect x="419.32" y="307.73" width="15.91" height="15.91" style="fill:#fff;stroke:#263238;stroke-linecap:round;stroke-linejoin:round"></rect><rect x="371.6" y="323.64" width="15.91" height="15.91" style="fill:#fff;stroke:#263238;stroke-linecap:round;stroke-linejoin:round"></rect><rect x="403.42" y="323.64" width="15.91" height="15.91" style="fill:#fff;stroke:#263238;stroke-linecap:round;stroke-linejoin:round"></rect><rect x="387.51" y="339.54" width="15.91" height="15.91" style="fill:#fff;stroke:#263238;stroke-linecap:round;stroke-linejoin:round"></rect><rect x="419.32" y="339.54" width="15.91" height="15.91" style="fill:#fff;stroke:#263238;stroke-linecap:round;stroke-linejoin:round"></rect><rect x="371.6" y="355.45" width="15.91" height="15.91" style="fill:#fff;stroke:#263238;stroke-linecap:round;stroke-linejoin:round"></rect><rect x="403.42" y="355.45" width="15.91" height="15.91" style="fill:#fff;stroke:#263238;stroke-linecap:round;stroke-linejoin:round"></rect><rect x="387.51" y="260.01" width="15.91" height="15.91" style="fill:#263238;stroke:#263238;stroke-linecap:round;stroke-linejoin:round"></rect><rect x="419.32" y="260.01" width="15.91" height="15.91" style="fill:#263238;stroke:#263238;stroke-linecap:round;stroke-linejoin:round"></rect><rect x="371.6" y="275.92" width="15.91" height="15.91" style="fill:#263238;stroke:#263238;stroke-linecap:round;stroke-linejoin:round"></rect><rect x="403.42" y="275.92" width="15.91" height="15.91" style="fill:#263238;stroke:#263238;stroke-linecap:round;stroke-linejoin:round"></rect><rect x="387.51" y="291.82" width="15.91" height="15.91" style="fill:#263238;stroke:#263238;stroke-linecap:round;stroke-linejoin:round"></rect><rect x="419.32" y="291.82" width="15.91" height="15.91" style="fill:#263238;stroke:#263238;stroke-linecap:round;stroke-linejoin:round"></rect><rect x="371.6" y="307.73" width="15.91" height="15.91" style="fill:#263238;stroke:#263238;stroke-linecap:round;stroke-linejoin:round"></rect><rect x="403.42" y="307.73" width="15.91" height="15.91" style="fill:#263238;stroke:#263238;stroke-linecap:round;stroke-linejoin:round"></rect><rect x="387.51" y="323.64" width="15.91" height="15.91" style="fill:#263238;stroke:#263238;stroke-linecap:round;stroke-linejoin:round"></rect><rect x="419.32" y="323.64" width="15.91" height="15.91" style="fill:#263238;stroke:#263238;stroke-linecap:round;stroke-linejoin:round"></rect><rect x="371.6" y="339.54" width="15.91" height="15.91" style="fill:#263238;stroke:#263238;stroke-linecap:round;stroke-linejoin:round"></rect><rect x="403.42" y="339.54" width="15.91" height="15.91" style="fill:#263238;stroke:#263238;stroke-linecap:round;stroke-linejoin:round"></rect><rect x="387.51" y="355.45" width="15.91" height="15.91" style="fill:#263238;stroke:#263238;stroke-linecap:round;stroke-linejoin:round"></rect><rect x="419.32" y="355.45" width="15.91" height="15.91" style="fill:#263238;stroke:#263238;stroke-linecap:round;stroke-linejoin:round"></rect><path d="M232.59,178.68l-5.31,1.13v-3.6c4.29-.91,5.82-2.16,7-5.55l3.42-.72v32.33l-5.08,1.08Z" style="fill:#fff"></path><path d="M243.59,193.34v-17c0-5.18,2.73-8.71,7.71-9.77s7.72,1.31,7.72,6.49v17c0,5.18-2.73,8.71-7.72,9.77S243.59,198.52,243.59,193.34Zm10.35-1.87V173.82c0-2.31-1-3-2.64-2.63s-2.63,1.44-2.63,3.75v17.65c0,2.31,1,3,2.63,2.63S253.94,193.78,253.94,191.47Z" style="fill:#fff"></path><path d="M262.45,164.67l5.08-1.08v13.63l6.47-15,5.08-1.08L273,174.29l6.15,19.16-5.31,1.13-4.3-13.5-2,4.54v10.3L262.45,197Z" style="fill:#fff"></path></g><g id="freepik--Floor--inject-1"><path d="M418.5,400.29H93C58.86,411.8,36.29,426.52,105,435c124.67,15.35,284,15.35,312-14.65C425.22,411.53,424.13,405.05,418.5,400.29Z" style="fill:#999"></path><line x1="316.89" y1="405.84" x2="456.78" y2="445" style="fill:none;stroke:#263238;stroke-linecap:round;stroke-linejoin:round"></line><line x1="297.05" y1="400.29" x2="313.06" y2="404.77" style="fill:none;stroke:#263238;stroke-linecap:round;stroke-linejoin:round"></line><line x1="352.59" y1="434.98" x2="278.22" y2="400.28" style="fill:none;stroke:#263238;stroke-linecap:round;stroke-linejoin:round"></line><line x1="374.07" y1="445" x2="356.1" y2="436.62" style="fill:none;stroke:#263238;stroke-linecap:round;stroke-linejoin:round"></line><line x1="268.73" y1="413.33" x2="259.41" y2="400.29" style="fill:none;stroke:#263238;stroke-linecap:round;stroke-linejoin:round"></line><line x1="291.36" y1="445" x2="270.9" y2="416.36" style="fill:none;stroke:#263238;stroke-linecap:round;stroke-linejoin:round"></line><line x1="217.06" y1="433.22" x2="240.59" y2="400.29" style="fill:none;stroke:#263238;stroke-linecap:round;stroke-linejoin:round"></line><line x1="208.64" y1="445" x2="214.04" y2="437.45" style="fill:none;stroke:#263238;stroke-linecap:round;stroke-linejoin:round"></line><line x1="191.97" y1="414.19" x2="221.77" y2="400.29" style="fill:none;stroke:#263238;stroke-linecap:round;stroke-linejoin:round"></line><line x1="125.93" y1="445" x2="186.4" y2="416.79" style="fill:none;stroke:#263238;stroke-linecap:round;stroke-linejoin:round"></line><line x1="88.12" y1="432.43" x2="202.96" y2="400.29" style="fill:none;stroke:#263238;stroke-linecap:round;stroke-linejoin:round"></line><line x1="43.22" y1="445" x2="75.49" y2="435.97" style="fill:none;stroke:#263238;stroke-linecap:round;stroke-linejoin:round"></line><line x1="43.22" y1="400.29" x2="456.78" y2="400.29" style="fill:none;stroke:#263238;stroke-linecap:round;stroke-linejoin:round"></line></g><g id="freepik--character-1--inject-1"><path d="M173.65,395a2.7,2.7,0,0,1,1.72,2.88c-.16,2.28,2.24,8.61-.28,10-2.85,1.54-7.69,1.36-8.05,0s1.2-3.48,1.08-5.16-1.32-7.21.72-7.69A14.55,14.55,0,0,1,173.65,395Z" style="fill:#92E3A9;stroke:#263238;stroke-linecap:round;stroke-linejoin:round"></path><path d="M174.15,396.41a1.69,1.69,0,0,0-.53,1c-.18,1.26-.55-1.72-2.66-1.44s-1.4,1.94-1.76,2.07c-.19.08-.23-.56-.35-1.15,0-2.94-.09-8.53-.61-10.95-.72-3.36-1.56-9.36-1.08-11.41,0,0-3.74-4.22-4-18.73H174v14.65s3,3.84,1.8,11.41C174.94,387.36,174.39,393.45,174.15,396.41Z" style="fill:#999;stroke:#263238;stroke-linecap:round;stroke-linejoin:round"></path><path d="M167.52,372.29s.36,4.09,2.64,5" style="fill:none;stroke:#263238;stroke-linecap:round;stroke-linejoin:round"></path><path d="M167.14,406.44s2.11-1.86,4.07-1.77" style="fill:none;stroke:#263238;stroke-linecap:round;stroke-linejoin:round"></path><path d="M159.42,377.34a8.64,8.64,0,0,1,.43,6.6c-1.2,3.84.6,8.29-1.92,9.85s-9.37.72-7.33-5,1.35-9.49,3.68-10.81A7.73,7.73,0,0,1,159.42,377.34Z" style="fill:#92E3A9;stroke:#263238;stroke-linecap:round;stroke-linejoin:round"></path><path d="M148,341.79l8.4.73,5,4s.27,6.9-2,11.44L158,362.32a12.26,12.26,0,0,1,.72,5.41c-.24,3.24-1.08,5.76-.12,8.53a8,8,0,0,1,.44,3.32,2,2,0,0,0-.31.62c-.45,1.4-1.17-1.44-3-1.26s-1,1.63-1.38,1.65c-1.05-3.19-5.92-18.68-3.77-22.68a19.67,19.67,0,0,1-4.23-8.31A10.63,10.63,0,0,1,148,341.79Z" style="fill:#999;stroke:#263238;stroke-linecap:round;stroke-linejoin:round"></path><path d="M150.55,358s.86,2.28,2.23,2.64" style="fill:none;stroke:#263238;stroke-linecap:round;stroke-linejoin:round"></path><path d="M151.88,285.86s-3.1-3.87-.28-6.2c0,0,1.71-7.12,6.6-5.37s4.31,3,4.31,3,5.51.26,5,3.24-1.52,2.72-1.52,2.72,1.49.71.9,3a2.88,2.88,0,0,1-3,2.05Z" style="fill:#263238"></path><path d="M143.14,305.76a39.9,39.9,0,0,0-4,2.52s.18,1.8-2.79,5-4.42,9.18-4.42,9.18c1.71.63.9,2.79,1,4.78s.9,3.33.48,4.68-1.74.54-1.74.54c-1.8,0-3.06-4.05-3.06-4.05a34.38,34.38,0,0,1,1-11.44A51.07,51.07,0,0,1,134,305.09s3.21-3.73,4.42-4.83c1.46-1.32,6.33-4.71,6.33-4.71L146,305A24.85,24.85,0,0,0,143.14,305.76Z" style="fill:#999;stroke:#263238;stroke-linecap:round;stroke-linejoin:round"></path><path d="M137.92,308.28s-2,.57-2.88-1.92" style="fill:none;stroke:#263238;stroke-linecap:round;stroke-linejoin:round"></path><path d="M130.84,325.23a8.62,8.62,0,0,1,.72,2.34c.18,1.27.53,2.59,1.71,1.63" style="fill:none;stroke:#263238;stroke-linecap:round;stroke-linejoin:round"></path><path d="M172.57,339.63s2.64,5.4,2.52,17.53a11.24,11.24,0,0,1-7.93,0c-3.84-1.68-5.16.12-5.16.12l-.6-4.08s.48-9-7.33-8.41-6.84,7.69-6.84,7.69-3.61-10-.73-14.17S172.57,339.63,172.57,339.63Z" style="fill:#263238;stroke:#263238;stroke-linecap:round;stroke-linejoin:round"></path><path d="M161.87,344.93a15.23,15.23,0,0,1,.49,6.83" style="fill:none;stroke:#7f7f7f;stroke-linecap:round;stroke-linejoin:round"></path><path d="M160.24,342.52a2.89,2.89,0,0,1,.77.77" style="fill:none;stroke:#7f7f7f;stroke-linecap:round;stroke-linejoin:round"></path><path d="M174,300.59s-13-11.52-29.31-5l1.8,29.9-1.08,15.26s3.73-4.09,15.62,0,13,0,13,0l-2.16-24.86Z" style="fill:#757575;stroke:#263238;stroke-linecap:round;stroke-linejoin:round"></path><path d="M168.72,320.17l1.08,11.17s-11.71,1-20.17-3.24L149,316.46S156.38,319.54,168.72,320.17Z" style="fill:#fff;stroke:#263238;stroke-linecap:round;stroke-linejoin:round"></path><path d="M169.58,329a46.71,46.71,0,0,1-20.05-2.8l-.37-6.73c6.91,3,17,3.4,19.83,3.46Z" style="fill:#263238"></path><path d="M162.81,292.76s.33,7-4,7c-5.52,0-5.21-6.31-5.21-6.31Z" style="fill:#999;stroke:#263238;stroke-linecap:round;stroke-linejoin:round"></path><path d="M163.48,285.58s.21,6.15-.78,7.75-3.72,3.94-5.84,3.94-4.76-2.94-4.92-4.1,0-8.87,0-8.87.32-6,4.92-6S163.52,281.92,163.48,285.58Z" style="fill:#999;stroke:#263238;stroke-linecap:round;stroke-linejoin:round"></path><path d="M151.92,286a1.14,1.14,0,0,0-.94-.15c-.71.23-1,1.26-.67,2.3a2,2,0,0,0,1.57,1.49C151.88,288.42,151.9,287.07,151.92,286Z" style="fill:#999;stroke:#263238;stroke-linecap:round;stroke-linejoin:round"></path><path d="M159.15,286.11c0,.37.19.68.42.68s.43-.31.43-.68-.19-.67-.43-.67S159.15,285.74,159.15,286.11Z" style="fill:#263238"></path><path d="M154.29,286c0,.37.2.67.43.67s.43-.3.43-.67-.19-.68-.43-.68S154.29,285.64,154.29,286Z" style="fill:#263238"></path><path d="M155.85,284.61s-1.4-1.25-2.51-.67" style="fill:none;stroke:#263238;stroke-linecap:round;stroke-linejoin:round"></path><path d="M158.22,284.61s1.41-1.25,2.51-.67" style="fill:none;stroke:#263238;stroke-linecap:round;stroke-linejoin:round"></path><path d="M158.22,291.74a4.19,4.19,0,0,0-3.25,0" style="fill:none;stroke:#263238;stroke-linecap:round;stroke-linejoin:round;stroke-width:0.75px"></path><path d="M168.36,310c.92,3.79,2,9.46,2,9.46L166,315.67s-1.68-4.67-3.21-6.08c-.59-.54-1.11-3.56-1.92-3.2s-.09,1.89-.09,1.89a11.29,11.29,0,0,0-1.9.54c-.54.27-1.89,5.59-1.26,6s1.35-1.26,1.72.72,3.78,3.78,3.78,3.78,5.76,8.11,8.28,9.46,5.23,2.07,6-5a43.37,43.37,0,0,0-.81-13.6s1.6-7.68-2.64-9.67S167.35,305.84,168.36,310Z" style="fill:#999;stroke:#263238;stroke-linecap:round;stroke-linejoin:round"></path><line x1="173.05" y1="321.97" x2="170.08" y2="319.15" style="fill:none;stroke:#263238;stroke-linecap:round;stroke-linejoin:round"></line><line x1="162.51" y1="309.36" x2="160.8" y2="308.28" style="fill:none;stroke:#263238;stroke-linecap:round;stroke-linejoin:round"></line><path d="M175.09,310.84a4,4,0,0,1-2.52,1.75" style="fill:#fff;stroke:#263238;stroke-linecap:round;stroke-linejoin:round"></path><path d="M156.59,285.89s-.52,2.65-1.23,3,.1,1.11.49,1.23,1.8.18,1.6-.29" style="fill:none;stroke:#263238;stroke-linecap:round;stroke-linejoin:round;stroke-width:0.75px"></path><polygon points="151.94 284.3 153.9 280.37 156.08 280.76 159.99 280.11 161.65 281.79 162.51 282.21 163.49 286.11 164.58 283.11 164.17 279.79 159.99 277.2 156.43 276.1 152.84 278.69 151.6 281.6 151.06 282.96 151.94 284.3" style="fill:#263238"></polygon><path d="M164.79,285.68a1.3,1.3,0,0,0-1.3.43c0,.69,0,2-.05,3.26a.39.39,0,0,0,.11.06c.71.24,1.57-.41,1.91-1.45S165.5,285.91,164.79,285.68Z" style="fill:#999;stroke:#263238;stroke-linecap:round;stroke-linejoin:round"></path><path d="M162.7,293.33c-1,1.61-3.72,3.94-5.84,3.94a5,5,0,0,1-3-1.41,5.43,5.43,0,0,0,1.73,2.84,3.09,3.09,0,0,0,1.23.28c2.09,0,4.78-2.26,5.8-3.87a13.52,13.52,0,0,0,.15-2A1.23,1.23,0,0,1,162.7,293.33Z" style="fill:#263238"></path></g><g id="freepik--character-2--inject-1"><path d="M244.68,365.88s-3.18,2.52-2.32,9.52-5,20,5.86,22.3c10.64,2.25,2.69-14.8,3.76-19.3s3.51-14.75-2.43-15.34Z" style="fill:#92E3A9;stroke:#263238;stroke-linecap:round;stroke-linejoin:round"></path><path d="M244.34,370.59a1.21,1.21,0,0,0,.34-.94c-.13-1.19,4.7-2.75,5.25-1.5a2.11,2.11,0,0,0,.55.74c0-1.68.19-7.53,1.05-14.89a113.83,113.83,0,0,0,0-19.77l-13.15,2.42,1.17,7.25s-4,3.66-1.17,13,5.5,13.33,5.5,13.33A4.27,4.27,0,0,0,244.34,370.59Z" style="fill:#999;stroke:#263238;stroke-linecap:round;stroke-linejoin:round"></path><path d="M233.47,285.15s-5,4.25-3,20,7.25,35,7.25,35,1,2.5,7,2.5,8.28-6,8.28-6l1.72-25.5V288.23Z" style="fill:#263238;stroke:#263238;stroke-linecap:round;stroke-linejoin:round"></path><path d="M239.41,342.12s.91,4.5,4.46,5" style="fill:none;stroke:#263238;stroke-linecap:round;stroke-linejoin:round"></path><path d="M258.46,422.4h7.76a3.21,3.21,0,0,0,3.16-3.75,22.5,22.5,0,0,1-.33-6.09,23.23,23.23,0,0,0,.21-11.86h-8.63s-2.75,2.53-3.08,9.7c-.28,6-2.09,6.86-1.57,9.94A2.5,2.5,0,0,0,258.46,422.4Z" style="fill:#92E3A9;stroke:#263238;stroke-linecap:round;stroke-linejoin:round"></path><path d="M273,329.56s-11.77-6.33-16.44,2.5c0,0,.83,13.84,3,19.67a120.64,120.64,0,0,0,0,26.5,152.52,152.52,0,0,1,1,24c.72-.76,2.11-1.55,4.79-1.55,2.13,0,3.19.85,3.7,1.85.63-6.16,2.67-26.09,3.65-33.65,1.16-9-1.84-20.84-1.84-20.84Z" style="fill:#999;stroke:#263238;stroke-linecap:round;stroke-linejoin:round"></path><path d="M251.53,289.15s-.81,29.25,3.94,47.5c0,0,1.5-6,8.75-6s8.25,6,8.25,6,6.5-47,0-53.5Z" style="fill:#263238;stroke:#263238;stroke-linecap:round;stroke-linejoin:round"></path><path d="M262.07,347.78c.65,1.93,1.62,4.26,2.7,5" style="fill:none;stroke:#263238;stroke-linecap:round;stroke-linejoin:round"></path><path d="M261.22,344.9s.16.66.45,1.61" style="fill:none;stroke:#263238;stroke-linecap:round;stroke-linejoin:round"></path><path d="M253.61,327.37c.22,1.45.47,2.88.73,4.26" style="fill:none;stroke:#7f7f7f;stroke-linecap:round;stroke-linejoin:round"></path><path d="M251.54,300.15a232.48,232.48,0,0,0,1.53,23.23" style="fill:none;stroke:#7f7f7f;stroke-linecap:round;stroke-linejoin:round"></path><path d="M219.11,216.36s-10.85-7.83-17.73-11.56c0,0-3.64-18.05-3.33-29.45,0,0-.06-2.49,0-3.32A3.72,3.72,0,0,1,200,168.7c1.59-.79,4.12-2.85,4.12-4.27a42,42,0,0,0-.79-5.23s-3.33-4-4-3.16a2.22,2.22,0,0,0-.1,1.81l-3.7-1.92c-2.53-2.11-4.59,2.48-5.86,5.49s-.63,9.5-.63,9.5c-2.54,22.48.66,37.38.66,37.38l11.37,11.07c14.41,13.14,18.05,12.19,18.05,12.19C223.23,226.65,219.11,216.36,219.11,216.36Z" style="fill:#999;stroke:#263238;stroke-linecap:round;stroke-linejoin:round"></path><path d="M200,168.7c1.59-.79,4.12-2.85,4.12-4.27a42,42,0,0,0-.79-5.23s-3.33-4-4-3.16,0,3.16,1.58,4.75l-1,2.69s-4.59.31-5.7,2.53" style="fill:none;stroke:#263238;stroke-linecap:round;stroke-linejoin:round"></path><path d="M192,158.57s1-1.19,1.42-.79-.63,3.56.48,4,2.21-1.26,2.29-2.05a23.77,23.77,0,0,0,0-2.46" style="fill:none;stroke:#263238;stroke-linecap:round;stroke-linejoin:round"></path><path d="M195.05,161.63a1.39,1.39,0,0,0,.63,1.77c1.12.74,2.37-1,2.61-1.77a18.69,18.69,0,0,0,.4-2.66" style="fill:none;stroke:#263238;stroke-linecap:round;stroke-linejoin:round"></path><path d="M193.94,161.81a8.78,8.78,0,0,1,0,2.54" style="fill:none;stroke:#263238;stroke-linecap:round;stroke-linejoin:round"></path><path d="M281.54,217.72s10.91-7.86,17.73-11.56c0,0,3.64-15.2,3.33-26.6a18.49,18.49,0,0,0,0-3.32,5.55,5.55,0,0,0-2.86-3.33c-1.59-.79-4.12-2.85-4.12-4.27a42,42,0,0,1,.79-5.23s3.33-4,4-3.16a2.22,2.22,0,0,1,.1,1.81l3.7-1.92c2.53-2.11,4.59,2.48,5.86,5.49s.63,9.5.63,9.5c2.54,22.48.34,34.86.34,34.86l-11.42,10.74c-14.41,13.14-18,12.19-18,12.19C277.42,228,281.54,217.72,281.54,217.72Z" style="fill:#999;stroke:#263238;stroke-linecap:round;stroke-linejoin:round"></path><path d="M299.75,172.91c-1.59-.79-4.12-2.85-4.12-4.27a42,42,0,0,1,.79-5.23s3.33-4,4-3.16,0,3.16-1.58,4.75l.95,2.69s4.59.31,5.7,2.53" style="fill:none;stroke:#263238;stroke-linecap:round;stroke-linejoin:round"></path><path d="M307.66,162.78s-1-1.19-1.42-.79.63,3.56-.48,4-2.21-1.27-2.29-2.06a23.77,23.77,0,0,1,0-2.46" style="fill:none;stroke:#263238;stroke-linecap:round;stroke-linejoin:round"></path><path d="M304.65,165.84a1.39,1.39,0,0,1-.63,1.77c-1.12.74-2.37-1-2.61-1.77a18.49,18.49,0,0,1-.4-2.66" style="fill:none;stroke:#263238;stroke-linecap:round;stroke-linejoin:round"></path><path d="M305.76,166a8.71,8.71,0,0,0,0,2.53" style="fill:none;stroke:#263238;stroke-linecap:round;stroke-linejoin:round"></path><path d="M225.22,238.9s3,13,5.33,48c0,0,20.67,13,44.67-2.34,0,0-4.34-27,0-46.66l8.66-4a45.44,45.44,0,0,1-1.33-18s-3.4,2-4.67,2c-2.82-.08-3.33-1.67-11,2.66,0,0-12.35-2.68-31.66-1.33,0,0-3.27-3.38-11-3.33-1.43,0-5.67-.67-5.67-.67s3,7.67-2,17Z" style="fill:#92E3A9;stroke:#263238;stroke-linecap:round;stroke-linejoin:round"></path><path d="M232.72,244.4a152.59,152.59,0,0,0,36.5,0v20s-19.75,2.75-35,0Z" style="fill:#fff;stroke:#263238;stroke-linecap:round;stroke-linejoin:round"></path><path d="M233.07,249.16l.84,11.19a235.21,235.21,0,0,0,35.31-.22V249.07A345.2,345.2,0,0,1,233.07,249.16Z" style="fill:#263238"></path><path d="M224.74,227.52s2.88,7.63,2.13,8.88-3.75-2-3.75-2" style="fill:none;stroke:#263238;stroke-linecap:round;stroke-linejoin:round"></path><path d="M277.47,228.17a27.2,27.2,0,0,0-2,6.85" style="fill:#92E3A9;stroke:#263238;stroke-linecap:round;stroke-linejoin:round"></path><path d="M266,281.36c1.05,0,2.13-.11,3.23-.21" style="fill:none;stroke:#263238;stroke-linecap:round;stroke-linejoin:round"></path><path d="M234,269.82s9.8,11.13,28.92,11.57" style="fill:none;stroke:#263238;stroke-linecap:round;stroke-linejoin:round"></path><path d="M245.63,253.38h-1.38v-.93a3.61,3.61,0,0,0,.9-.1,1.12,1.12,0,0,0,.55-.32,1.83,1.83,0,0,0,.36-.64H247v8.4h-1.32Z" style="fill:#fff"></path><path d="M249,259.36a2.22,2.22,0,0,1-.52-1.56v-4.42a2.22,2.22,0,0,1,.52-1.56,2.28,2.28,0,0,1,3,0,2.18,2.18,0,0,1,.52,1.56v4.42a2.18,2.18,0,0,1-.52,1.56,2.28,2.28,0,0,1-3,0Zm2.17-1.48V253.3c0-.55-.23-.83-.68-.83s-.69.28-.69.83v4.58c0,.55.23.83.69.83S251.17,258.43,251.17,257.88Z" style="fill:#fff"></path><path d="M253.76,259.38a2.09,2.09,0,0,1-.54-1.55v-.74a2.34,2.34,0,0,1,.21-1,1.43,1.43,0,0,1,.66-.67v0a1.4,1.4,0,0,1-.62-.63,2.36,2.36,0,0,1-.2-1v-.34a2.12,2.12,0,0,1,.52-1.55,2.37,2.37,0,0,1,3,0,2.12,2.12,0,0,1,.52,1.55v.34a1.74,1.74,0,0,1-.81,1.66v0a1.52,1.52,0,0,1,.66.67,2.49,2.49,0,0,1,.2,1v.74a1.86,1.86,0,0,1-2.06,2.08A2.07,2.07,0,0,1,253.76,259.38Zm2.27-1.62V257c0-.63-.25-.95-.74-.95s-.75.32-.75.95v.8c0,.63.25.95.75.95S256,258.39,256,257.76Zm0-3.79v-.66q0-.84-.69-.84c-.47,0-.7.28-.7.84V254c0,.56.23.84.7.84S256,254.53,256,254Z" style="fill:#fff"></path><path d="M242.36,211.83v9.73s.45,1.14,8.17,1.14,8.71-1.14,8.71-1.14l-1.51-9.73Z" style="fill:#999;stroke:#263238;stroke-linecap:round;stroke-linejoin:round"></path><path d="M238.54,205a3.68,3.68,0,0,1-1.25-4.62s-2.66-4.75,1.25-6.5c0,0-1.94-4.83,2.34-5.34,0,0,1.08-5.83,6.08-3.16,0,0,4.77-4.25,7.8.75,0,0,5.45-1.5,5.87,3.41,0,0,4.08,2.71,1.83,6.27,0,0,2,3.07.33,4.82,0,0,.34,3.84-2.16,5.5S238.54,205,238.54,205Z" style="fill:#263238"></path><path d="M261.15,202.33c-.06,5.74-.87,20.37-10.62,20.37-9,0-11-14.55-11.38-20.37-.28-4.6-.27-15.13,10.5-15.13C262.4,187.2,261.2,197.58,261.15,202.33Z" style="fill:#999;stroke:#263238;stroke-linecap:round;stroke-linejoin:round"></path><path d="M239.27,203.9a2.37,2.37,0,0,0-1.84.33c-1.28.87-1.42,2.92-.29,4.57a3.75,3.75,0,0,0,3.21,1.8A51.16,51.16,0,0,1,239.27,203.9Z" style="fill:#999;stroke:#263238;stroke-linecap:round;stroke-linejoin:round"></path><path d="M249.65,187.2c-10.77,0-10.78,10.53-10.5,15.13,0,.58.09,1.26.17,2a14.39,14.39,0,0,0,1.71-4.67,20.9,20.9,0,0,0-.11-3.33,3.88,3.88,0,0,1,2.19-3.9c1.67-.79,4.1.4,7,.4s5.12-1,6.67-.09a4.19,4.19,0,0,1,1.85,4.24,7.8,7.8,0,0,0-.05,2.76,13.66,13.66,0,0,0,2.5,4.26c0-.61,0-1.18,0-1.67C261.2,197.58,262.4,187.2,249.65,187.2Z" style="fill:#263238"></path><path d="M248,206.41s-.87,2.2.65,2.71c0,0,1.75,1.38,3.13,0,0,0,1.53-.32.8-2.71" style="fill:none;stroke:#263238;stroke-linecap:round;stroke-linejoin:round"></path><path d="M246.29,204.17c0,.68-.35,1.24-.78,1.24s-.79-.56-.79-1.24.35-1.24.79-1.24S246.29,203.48,246.29,204.17Z" style="fill:#263238"></path><path d="M255.38,204.17c0,.68-.36,1.24-.79,1.24s-.79-.56-.79-1.24.35-1.24.79-1.24S255.38,203.48,255.38,204.17Z" style="fill:#263238"></path><path d="M255,214.05s-1.6,3.76-4.37,3.76-4.72-3.91-4.72-3.91a12.56,12.56,0,0,1,4.55-1A11.15,11.15,0,0,1,255,214.05Z" style="fill:#263238;stroke:#263238;stroke-linecap:round;stroke-linejoin:round"></path><path d="M255,214.05a4.61,4.61,0,0,0-4.41-2.52,5.3,5.3,0,0,0-4.68,2.37,12.56,12.56,0,0,1,4.55-1A11.15,11.15,0,0,1,255,214.05Z" style="fill:#858585;stroke:#263238;stroke-linecap:round;stroke-linejoin:round"></path><path d="M250.93,216.75c-2.3,0-5-2.85-5-2.85s1.94,3.91,4.72,3.91,4.37-3.76,4.37-3.76S252.51,216.75,250.93,216.75Z" style="fill:#fff"></path><path d="M250.66,217.81c-2.78,0-4.72-3.91-4.72-3.91s.5,5.36,4.55,5.36,4.54-5.21,4.54-5.21S253.43,217.81,250.66,217.81Z" style="fill:#858585;stroke:#263238;stroke-linecap:round;stroke-linejoin:round"></path><path d="M248.41,203a.75.75,0,0,1-.56-.25c-2-2.31-4.71-.48-4.82-.4a.75.75,0,0,1-.86-1.23,5.07,5.07,0,0,1,6.81.64.74.74,0,0,1-.07,1.05A.73.73,0,0,1,248.41,203Z" style="fill:#263238"></path><path d="M251.58,202.93a.79.79,0,0,1-.52-.2.75.75,0,0,1,0-1.06,5.07,5.07,0,0,1,6.82-.46.75.75,0,0,1-.89,1.21h0c-.12-.08-2.75-2-4.84.27A.71.71,0,0,1,251.58,202.93Z" style="fill:#263238"></path><path d="M242.36,216.46v1a12,12,0,0,0,4.19,5.11c1,.08,2.34.13,4,.13C246.65,222.7,244.07,220,242.36,216.46Z" style="fill:#263238;stroke:#263238;stroke-miterlimit:10"></path><path d="M258.54,217c-1.56,3.26-4.05,5.67-8,5.67,1.72,0,3.09-.06,4.21-.14a10.61,10.61,0,0,0,3.91-4.79Z" style="fill:#263238;stroke:#263238;stroke-miterlimit:10"></path><path d="M263.24,204.23a2.51,2.51,0,0,0-2.13-.27,48.25,48.25,0,0,1-.65,6.64,3.81,3.81,0,0,0,3.07-1.8C264.65,207.15,264.52,205.1,263.24,204.23Z" style="fill:#999;stroke:#263238;stroke-linecap:round;stroke-linejoin:round"></path><path d="M256,418s3.38-4.69,8.84-3.83" style="fill:none;stroke:#263238;stroke-linecap:round;stroke-linejoin:round"></path></g><g id="freepik--character-3--inject-1"><path d="M328.53,390.34a3.65,3.65,0,0,0-2.33,3.89c.22,3.09-3,11.65.38,13.49,3.85,2.08,10.4,1.83,10.89,0s-1.63-4.71-1.47-7,1.79-9.74-1-10.39A19.62,19.62,0,0,0,328.53,390.34Z" style="fill:#92E3A9;stroke:#263238;stroke-linecap:round;stroke-linejoin:round"></path><path d="M327.86,392.26a10.27,10.27,0,0,0,.71,1.41,3.15,3.15,0,0,1,3.6-2c2.85.37,1.89,2.63,2.37,2.81.26.1.31-.76.48-1.55,0-4,.12-11.54.82-14.81,1-4.55,2.11-12.67,1.46-15.43,0,0,5.06-5.72,5.36-25.34H328.05V357.2s-4.06,5.2-2.44,15.43C326.78,380,327.53,388.25,327.86,392.26Z" style="fill:#fff;stroke:#263238;stroke-linecap:round;stroke-linejoin:round"></path><path d="M336.82,359.64s-.49,5.52-3.58,6.82" style="fill:none;stroke:#263238;stroke-linecap:round;stroke-linejoin:round"></path><path d="M347.77,366.46a11.72,11.72,0,0,0-.58,8.93c1.63,5.2-.81,11.21,2.6,13.32s12.67,1,9.91-6.82-1.82-12.83-5-14.62A10.51,10.51,0,0,0,347.77,366.46Z" style="fill:#92E3A9;stroke:#263238;stroke-linecap:round;stroke-linejoin:round"></path><path d="M363.29,318.39l-11.37,1-6.79,5.34a56,56,0,0,0,2.73,15.47l1.79,6a16.52,16.52,0,0,0-1,7.31c.33,4.38,1.46,7.79.16,11.53a11,11,0,0,0-.58,4.5,2.61,2.61,0,0,1,.42.84c.61,1.89,1.58-1.95,4.08-1.71s1.3,2.21,1.87,2.23c1.41-4.32,8-25.26,5.1-30.67,0,0,4.56-5.08,5.71-11.24A14.38,14.38,0,0,0,363.29,318.39Z" style="fill:#fff;stroke:#263238;stroke-linecap:round;stroke-linejoin:round"></path><path d="M357.16,341.61s-1.16,3.09-3,3.57" style="fill:none;stroke:#263238;stroke-linecap:round;stroke-linejoin:round"></path><path d="M330,315.46s-3.57,7.31-3.41,23.72c0,0,5.53,2.27,10.72,0s7,.16,7,.16l.81-5.52s-.65-12.19,9.91-11.37,9.25,10.39,9.25,10.39,4.88-13.48,1-19.16S330,315.46,330,315.46Z" style="fill:#92E3A9;stroke:#263238;stroke-linecap:round;stroke-linejoin:round"></path><path d="M344.46,322.64c-.69,1.91-1.15,4.83-.66,9.23" style="fill:none;stroke:#263238;stroke-linecap:round;stroke-linejoin:round"></path><path d="M346.66,319.38a4,4,0,0,0-1,1" style="fill:none;stroke:#263238;stroke-linecap:round;stroke-linejoin:round"></path><path d="M328.05,262.68s17.54-15.59,39.63-6.82l-2.44,40.44,1.46,20.62s-5-5.52-21.11,0-17.54,0-17.54,0L331,283.3Z" style="fill:#263238;stroke:#263238;stroke-linecap:round;stroke-linejoin:round"></path><path d="M335.19,289.15l-1.46,15.11s15.84,1.34,27.29-4.39l.85-15.73S351.88,288.3,335.19,289.15Z" style="fill:#fff;stroke:#263238;stroke-linecap:round;stroke-linejoin:round"></path><path d="M334,301.13a63,63,0,0,0,27.12-3.79l.5-9.1c-9.35,4.07-22.92,4.61-26.82,4.68Z" style="fill:#263238;stroke:#263238;stroke-linecap:round;stroke-linejoin:round"></path><path d="M376.24,262.23l6,6.52a69.09,69.09,0,0,1,5.85,16c2.19,9.38,1.34,15.47,1.34,15.47s-1.89,4.54-4.14,5.48c0,0-1.79,1.09-2.36-.73s.53-3.66.65-6.34-1-5.6,1.34-6.45c0,0-1.95-8.17-6-12.43s-3.77-6.7-3.77-6.7l-5.36-3.41Z" style="fill:#fff;stroke:#263238;stroke-linecap:round;stroke-linejoin:round"></path><path d="M376.85,273.07s2.68.77,3.9-2.6" style="fill:none;stroke:#263238;stroke-linecap:round;stroke-linejoin:round"></path><path d="M364.44,254.73s9-.78,13.14,7.62c0,0,1.61,5-4.75,9.26l-7.15-1.14Z" style="fill:#263238;stroke:#263238;stroke-linecap:round;stroke-linejoin:round"></path><path d="M386.42,296a11.59,11.59,0,0,0-1,3.16c-.25,1.71-.71,3.5-2.31,2.2" style="fill:none;stroke:#263238;stroke-linecap:round;stroke-linejoin:round"></path><path d="M324.47,275.75a58.58,58.58,0,0,0-1.09,18.4c1.09,9.5,4.75,8.52,8.16,6.7s11.2-12.8,11.2-12.8,4.63-2.43,5.12-5.11,1.46-.37,2.31-1-1-7.79-1.7-8.16a15.38,15.38,0,0,0-2.56-.73s1-2.07-.12-2.56-2.19,3.17-4.51,4.75-2.43,7.8-2.43,7.8L333,288.18s3.29-7.56,2.68-12.79l-5.08-2.2Z" style="fill:#fff;stroke:#263238;stroke-linecap:round;stroke-linejoin:round"></path><line x1="329.34" y1="291.59" x2="331.9" y2="289.15" style="fill:none;stroke:#263238;stroke-linecap:round;stroke-linejoin:round"></line><line x1="341.28" y1="275.26" x2="345.91" y2="273.07" style="fill:none;stroke:#263238;stroke-linecap:round;stroke-linejoin:round"></line><path d="M331.83,259.92s-8.33,2.19-8.45,16.93c0,0,8-1.59,12.18.73,0,0,3-4.39,2.07-9.38S331.83,259.92,331.83,259.92Z" style="fill:#263238;stroke:#263238;stroke-linecap:round;stroke-linejoin:round"></path><path d="M343.19,251.21s-.45,9.41,5.41,9.41c7.47,0,7-8.53,7-8.53Z" style="fill:#fff;stroke:#263238;stroke-linecap:round;stroke-linejoin:round"></path><path d="M342.28,242.37s-.3,8.31,1.13,10.49,5.39,5.32,8.46,5.32,6.89-4,7.12-5.55,0-12,0-12-.45-8.17-7.12-8.17S342.23,237.42,342.28,242.37Z" style="fill:#fff;stroke:#263238;stroke-linecap:round;stroke-linejoin:round"></path><path d="M342.27,243.09a1.77,1.77,0,0,0-1.76-.59c-1,.32-1.37,1.71-.91,3.12s1.62,2.28,2.58,2l.17-.08C342.24,245.73,342.25,244,342.27,243.09Z" style="fill:#fff;stroke:#263238;stroke-linecap:round;stroke-linejoin:round"></path><path d="M360.56,242.5a1.66,1.66,0,0,0-1.53.38c0,1.33.05,3.08.06,4.74.91.14,1.94-.7,2.37-2S361.52,242.82,360.56,242.5Z" style="fill:#fff;stroke:#263238;stroke-linecap:round;stroke-linejoin:round"></path><path d="M357.19,233.23s-.15-4.87-6.52-5.17-7.56,1-8.84-.75c0,0-1.12,3.75,3,3.52,0,0-7,1.13-2.55,11.54,0,0,1.8-6.59,3.6-6.37s8.39.82,10.34-.75c0,0,.22,1.72,2.77,5.4,0,0,2-2.66,1.05-5.32-1-2.85-1.81-4-2.32-5.7C357.27,228.11,357.19,233.23,357.19,233.23Z" style="fill:#263238"></path><path d="M348.27,243c0,.55-.29,1-.63,1s-.64-.44-.64-1,.29-1,.64-1S348.27,242.47,348.27,243Z" style="fill:#263238"></path><path d="M355.65,243c0,.55-.28,1-.63,1s-.63-.44-.63-1,.28-1,.63-1S355.65,242.47,355.65,243Z" style="fill:#263238"></path><path d="M345.18,240.53a3.4,3.4,0,0,1,3.92.35c1.72,1.64,1.74-.42,1.74-.42" style="fill:none;stroke:#263238;stroke-linecap:round;stroke-linejoin:round"></path><path d="M353.1,240.78s2-1.77,3.57-.94" style="fill:none;stroke:#263238;stroke-linecap:round;stroke-linejoin:round"></path><path d="M349.78,247.85a1.41,1.41,0,0,1,1.44.5c.63.76,1.7.17,2.65-.54" style="fill:none;stroke:#263238;stroke-linecap:round;stroke-linejoin:round"></path><path d="M352.48,242.94s-1,.38.63,3.9" style="fill:none;stroke:#263238;stroke-linecap:round;stroke-linejoin:round"></path><path d="M350.41,251.35a3.66,3.66,0,0,1,2.83,0" style="fill:none;stroke:#263238;stroke-linecap:round;stroke-linejoin:round"></path><path d="M354.39,257.45a5.57,5.57,0,0,1-2.52.73c-3.07,0-7-3.15-8.46-5.32a2.6,2.6,0,0,1-.2-.41,17,17,0,0,0,.23,2.2c1.43,2.16,5.34,5.24,8.38,5.27A6.08,6.08,0,0,0,354.39,257.45Z" style="fill:#263238"></path><path d="M331.28,403.32s4.21-.84,5.85,2.79" style="fill:none;stroke:#263238;stroke-linecap:round;stroke-linejoin:round"></path></g><g id="freepik--finish-line--inject-1"><path d="M454.24,253.8c-.76-1.22-3.88-2.8-10-2.88V228c4.6.06,7.51,1.22,9,2.24a2.16,2.16,0,0,1,.92,1.78Z" style="fill:#999;stroke:#263238;stroke-linecap:round;stroke-linejoin:round"></path><path d="M44.52,273.49s82.1-32.32,83.67,0,33.72-2.09,55.05,0-5.55,36.05,89.75,3.09c82.72-28.61,79.69,20.95,120.77,13.88,32.47-5.59,63.34-28.44,60.48-38l-.18-21.18c.26,13-27.57,32.27-60.3,37.9-41.08,7.07-38.43-43.57-120.77-13.88-88.7,32-68.41-1-89.75-3.09s-53.48,32.31-55.05,0-83.67,0-83.67,0Z" style="fill:#fff;stroke:#263238;stroke-linecap:round;stroke-linejoin:round"></path><path d="M235.69,276.21l.28,1.4-3.16.63,1.18,5.94-1.53.31-2.73-13.74,5.45-1.09.28,1.4-3.92.78,1,5Z" style="fill:#263238"></path><path d="M239.24,268.74l3.12,13.65-1.52.35-3.13-13.65Z" style="fill:#263238"></path><path d="M247,281.29l-1.35.35-3.52-13.56,1.92-.5,5.68,9-2.54-9.8,1.33-.35L252,280l-1.57.41-6.31-10.06Z" style="fill:#263238"></path><path d="M252.83,265.19l3.85,13.46-1.5.43-3.85-13.46Z" style="fill:#263238"></path><path d="M262.42,265.79l.12.37-1.42.43-.13-.43c-.37-1.21-1.05-1.77-2.12-1.44s-1.31,1.18-.95,2.36c.93,3,5.51,1.9,6.67,5.66.63,2,.06,3.65-2,4.28s-3.41-.39-4-2.42l-.24-.76,1.39-.43.26.84c.38,1.2,1.09,1.75,2.16,1.42s1.35-1.19,1-2.39c-.92-3-5.48-1.89-6.65-5.65-.63-2.06-.07-3.64,1.93-4.26S261.8,263.77,262.42,265.79Z" style="fill:#263238"></path><path d="M267.7,268.62l2,6-1.48.5-4.47-13.26,1.48-.5,2,6,3.26-1.1-2-6,1.48-.5L274.45,273l-1.48.49-2-6Z" style="fill:#263238"></path></g></svg>